<?xml version="1.0" encoding="utf-8"?>
<!-- Generator: Adobe Illustrator 28.0.0, SVG Export Plug-In . SVG Version: 6.00 Build 0)  -->
<svg version="1.1" xmlns="http://www.w3.org/2000/svg" xmlns:xlink="http://www.w3.org/1999/xlink" x="0px" y="0px"
	 viewBox="0 0 24 28.8" style="enable-background:new 0 0 24 28.8;" xml:space="preserve">
<style type="text/css">
	.st0{fill:#333333;}
</style>
<g id="Friday_x5F_13">
</g>
<g id="Ghostface">
	<g>
		<g>
			<path class="st0" d="M12,28.8c-4.42,0-5.47-4.74-6.23-8.2c-0.39-1.78-0.84-3.8-1.57-3.8c-2.32,0-4.2-1.88-4.2-4.2
				C0,5.42,5.16,0,12,0s12,5.42,12,12.6c0,2.32-1.88,4.2-4.2,4.2c-0.73,0-1.17,2.02-1.57,3.8C17.47,24.06,16.42,28.8,12,28.8z
				 M12,1.2C5.84,1.2,1.2,6.1,1.2,12.6c0,1.65,1.35,3,3,3c1.69,0,2.18,2.2,2.74,4.74c0.75,3.4,1.6,7.26,5.06,7.26
				s4.31-3.86,5.06-7.26c0.56-2.54,1.05-4.74,2.74-4.74c1.65,0,3-1.35,3-3C22.8,6.1,18.16,1.2,12,1.2z"/>
		</g>
		<g>
			<path class="st0" d="M10.8,14.4c-0.33,0-0.6-0.27-0.6-0.6v-0.6c0-0.33,0.27-0.6,0.6-0.6s0.6,0.27,0.6,0.6v0.6
				C11.4,14.13,11.13,14.4,10.8,14.4z"/>
		</g>
		<g>
			<path class="st0" d="M13.2,14.4c-0.33,0-0.6-0.27-0.6-0.6v-0.6c0-0.33,0.27-0.6,0.6-0.6s0.6,0.27,0.6,0.6v0.6
				C13.8,14.13,13.53,14.4,13.2,14.4z"/>
		</g>
		<g>
			<path class="st0" d="M12,26.4c-2.29,0-3.6-5.66-3.6-7.2c0-1.99,1.61-3.6,3.6-3.6s3.6,1.61,3.6,3.6C15.6,20.74,14.29,26.4,12,26.4
				z M12,16.8c-1.32,0-2.4,1.08-2.4,2.4c0,1.79,1.42,6,2.4,6s2.4-4.21,2.4-6C14.4,17.88,13.32,16.8,12,16.8z"/>
		</g>
		<g>
			<path class="st0" d="M6,14.4c-1.53,0-2.4-0.87-2.4-2.4c0-1.08,0.7-1.51,1.38-1.93c0.37-0.23,0.79-0.49,1.2-0.9
				c0.43-0.43,0.69-0.97,0.94-1.48C7.49,6.9,7.93,6,9,6c1.53,0,2.4,0.87,2.4,2.4C11.4,10.47,8.17,14.4,6,14.4z M9,7.2
				c-0.28,0-0.44,0.24-0.81,1.01C7.93,8.76,7.6,9.45,7.02,10.02c-0.51,0.51-1.01,0.82-1.42,1.07C4.94,11.5,4.8,11.63,4.8,12
				c0,0.86,0.34,1.2,1.2,1.2c1.37,0,4.2-3.23,4.2-4.8C10.2,7.54,9.86,7.2,9,7.2z"/>
		</g>
		<g>
			<path class="st0" d="M18,14.4c-2.17,0-5.4-3.93-5.4-6C12.6,6.87,13.47,6,15,6c1.07,0,1.51,0.9,1.89,1.69
				c0.25,0.52,0.51,1.05,0.94,1.48c0.41,0.41,0.83,0.67,1.2,0.9c0.68,0.42,1.38,0.85,1.38,1.93C20.4,13.53,19.53,14.4,18,14.4z
				 M15,7.2c-0.86,0-1.2,0.34-1.2,1.2c0,1.57,2.83,4.8,4.2,4.8c0.86,0,1.2-0.34,1.2-1.2c0-0.37-0.14-0.5-0.81-0.91
				c-0.41-0.25-0.91-0.56-1.42-1.07c-0.58-0.57-0.9-1.26-1.17-1.81C15.44,7.44,15.28,7.2,15,7.2z"/>
		</g>
	</g>
</g>
<g id="Frankenstein">
</g>
<g id="Marshmallow">
</g>
<g id="Samara_x5F_the_x5F_ring">
</g>
<g id="Dracula">
</g>
<g id="Poltergeist">
</g>
<g id="Chucky">
</g>
<g id="Pennywise">
</g>
<g id="Hannibal_x5F_Lecter">
</g>
</svg>
