<?xml version="1.0" encoding="utf-8"?>
<!-- Generator: Adobe Illustrator 28.0.0, SVG Export Plug-In . SVG Version: 6.00 Build 0)  -->
<svg version="1.1" xmlns="http://www.w3.org/2000/svg" xmlns:xlink="http://www.w3.org/1999/xlink" x="0px" y="0px"
	 viewBox="0 0 25 25" style="enable-background:new 0 0 25 25;" xml:space="preserve">
<style type="text/css">
	.st0{fill:none;stroke:#000000;stroke-width:0.5;stroke-miterlimit:10;}
</style>
<g id="Friday_x5F_13">
</g>
<g id="Ghostface">
	<g id="SVGRepo_bgCarrier">
	</g>
	<g id="SVGRepo_tracerCarrier">
	</g>
	<g id="SVGRepo_bgCarrier_00000171686975073218054600000001931795992104698290_">
	</g>
	<g id="SVGRepo_tracerCarrier_00000049190577542530356600000014379235301369451393_">
	</g>
	<g id="SVGRepo_iconCarrier_00000005239029854309122310000005835547716916771233_">
		<path class="st0" d="M8.6,23.16c0.41,0.24,0.84,0.42,1.29,0.55c-3.11,1.66-6.99,0.48-8.65-2.63c-1.03-1.92-1-4.24,0.07-6.14
			c0.14,0.48,0.39,1.03,0.75,1.63c0.7,1.18,1.82,2.57,3.08,3.83C6.35,21.6,7.57,22.58,8.6,23.16L8.6,23.16z M15.31,0.74l-2.43,2.43
			c-0.28,0.28-0.28,0.75,0,1.03l7.95,7.95c0.28,0.28,0.75,0.28,1.03,0l2.43-2.43c0.28-0.28,0.28-0.75,0-1.03l-7.95-7.95
			C16.05,0.46,15.59,0.46,15.31,0.74z M13.23,7.93l3.82,3.82c0.26,0.26,0.59,0.42,0.95,0.47l1.76,0.23l-7.22-7.22l0.2,1.71
			C12.8,7.32,12.96,7.66,13.23,7.93z M17,13.07c-0.81,1.79-3.37,7.3-5.59,9.53c-1.95,1.95-10.67-7.4-9.04-9.04
			c2.21-2.21,7.75-4.73,9.59-5.53L17,13.07L17,13.07z M9.91,17.47c-0.59,0.16-1.21-0.01-1.64-0.44l-1.28,1.28
			c0.89,0.89,2.18,1.23,3.39,0.91L9.91,17.47z M7.83,15.38c0.16-0.59,0.62-1.05,1.21-1.21l-0.46-1.75c-1.22,0.32-2.17,1.27-2.5,2.49
			L7.83,15.38z M9.99,15.31c-0.29-0.29-0.75-0.29-1.04,0c-0.29,0.29-0.29,0.75,0,1.04c0.29,0.29,0.75,0.29,1.04,0
			C10.28,16.06,10.28,15.59,9.99,15.31C10,15.31,10,15.3,9.99,15.31L9.99,15.31z M11.96,13.34l-1.28,1.28
			c0.43,0.43,0.6,1.06,0.44,1.65l1.75,0.47C13.2,15.53,12.85,14.23,11.96,13.34L11.96,13.34z"/>
	</g>
</g>
<g id="Frankenstein">
</g>
<g id="Marshmallow">
</g>
<g id="Samara_x5F_the_x5F_ring">
</g>
<g id="Dracula">
</g>
<g id="Poltergeist">
</g>
<g id="Chucky">
</g>
<g id="Pennywise">
</g>
<g id="Hannibal_x5F_Lecter">
</g>
</svg>
