<?xml version="1.0" encoding="utf-8"?>
<!-- Generator: Adobe Illustrator 28.0.0, SVG Export Plug-In . SVG Version: 6.00 Build 0)  -->
<svg version="1.1" id="Capa_1" xmlns="http://www.w3.org/2000/svg" xmlns:xlink="http://www.w3.org/1999/xlink" x="0px" y="0px"
	 viewBox="0 0 542.1 85.39" style="enable-background:new 0 0 542.1 85.39;" xml:space="preserve">
<style type="text/css">
	.st0{fill:url(#SVGID_1_);}
	.st1{fill:url(#SVGID_00000157291762310998714680000015658433557517458064_);}
	.st2{fill:url(#SVGID_00000036217495163646785450000007490468864265520019_);}
	.st3{fill:url(#SVGID_00000085959146400145432470000006242238256356156337_);}
	.st4{fill:url(#SVGID_00000129917752795032108410000002769425679139873964_);}
	.st5{fill:url(#SVGID_00000096024530051174463860000012744807557136093117_);}
	.st6{fill:url(#SVGID_00000155867333594901910690000003501924288619958672_);}
	.st7{fill:url(#SVGID_00000085960830686766862350000015066938889367870390_);}
	.st8{fill:url(#SVGID_00000077305077118804179800000014597823052389408174_);}
</style>
<g>
	<linearGradient id="SVGID_1_" gradientUnits="userSpaceOnUse" x1="38.0413" y1="87.0293" x2="38.0413" y2="3.7227">
		<stop  offset="0" style="stop-color:#BA7D0A"/>
		<stop  offset="1" style="stop-color:#F2D78A"/>
	</linearGradient>
	<path class="st0" d="M20.53,81.67c-6.39-3.58-11.4-8.54-15.05-14.89C1.82,60.43,0,53.28,0,45.32c0-8.03,1.82-15.2,5.47-21.51
		c3.65-6.31,8.7-11.24,15.16-14.78c6.46-3.54,13.7-5.31,21.73-5.31c6.57,0,12.81,1.3,18.72,3.89C67,10.2,71.85,13.9,75.64,18.72
		L63.6,28.35c-2.48-3.21-5.64-5.69-9.47-7.44s-7.68-2.63-11.55-2.63c-4.96,0-9.31,1.15-13.03,3.45c-3.72,2.3-6.57,5.49-8.54,9.58
		c-1.97,4.09-2.96,8.76-2.96,14.01c0,5.04,1.02,9.62,3.06,13.74c2.04,4.12,4.91,7.39,8.59,9.8c3.68,2.41,7.9,3.61,12.64,3.61
		c3.65,0,6.93-0.51,9.85-1.53c2.92-1.02,5.11-2.33,6.57-3.94V54.3H41.82V40.61h34.26v31.2c-7.66,10.14-19.01,15.22-34.05,15.22
		C34.08,87.03,26.91,85.24,20.53,81.67z"/>
	
		<linearGradient id="SVGID_00000155127794507681633090000015239589073177395336_" gradientUnits="userSpaceOnUse" x1="244.3406" y1="85.3877" x2="244.3406" y2="4.3789">
		<stop  offset="0" style="stop-color:#BA7D0A"/>
		<stop  offset="1" style="stop-color:#F2D78A"/>
	</linearGradient>
	<path style="fill:url(#SVGID_00000155127794507681633090000015239589073177395336_);" d="M244.34,27.92l-19.7,57.47h-16.31
		l-28.9-81.01h18.83l19.05,57.47l18.94-57.47h16.31l18.94,57.47l19.05-57.47h18.72l-28.68,81.01h-16.31L244.34,27.92z"/>
	
		<linearGradient id="SVGID_00000081649741914279146630000010050844391603433908_" gradientUnits="userSpaceOnUse" x1="334.8721" y1="86.4824" x2="334.8721" y2="24.8496">
		<stop  offset="0" style="stop-color:#BA7D0A"/>
		<stop  offset="1" style="stop-color:#F2D78A"/>
	</linearGradient>
	<path style="fill:url(#SVGID_00000081649741914279146630000010050844391603433908_);" d="M349.65,27.75
		c3.94,1.93,7.01,4.65,9.2,8.16c2.19,3.5,3.28,7.55,3.28,12.15v37.33h-12.15l-4.27-7.77c-1.9,2.63-4.29,4.76-7.17,6.4
		c-2.88,1.64-6.22,2.46-10.02,2.46c-6.28,0-11.33-1.73-15.16-5.2c-3.83-3.47-5.75-8.01-5.75-13.63c0-3.72,1.06-7.04,3.17-9.96
		c2.12-2.92,5.11-5.18,8.98-6.79c3.87-1.6,8.32-2.41,13.36-2.41c3.87,0,7.81,0.4,11.82,1.2v-1.64c-0.29-3.14-1.57-5.56-3.83-7.28
		c-2.26-1.71-5.36-2.57-9.31-2.57c-5.11,0-9.52,1.42-13.25,4.27l-7.23-10.07c3.43-2.55,7.13-4.45,11.11-5.69
		c3.98-1.24,8.56-1.86,13.74-1.86C341.22,24.85,345.71,25.82,349.65,27.75z M341.66,70.77c2.33-2.44,3.5-5.64,3.5-9.58
		c-3.8-0.73-7.08-1.09-9.85-1.09c-2.99,0-5.42,0.66-7.28,1.97s-2.79,3.06-2.79,5.25c0,2.26,0.71,4.02,2.13,5.26
		c1.42,1.24,3.41,1.86,5.97,1.86C336.55,74.44,339.32,73.22,341.66,70.77z"/>
	
		<linearGradient id="SVGID_00000103255081502236443940000008398271700724591518_" gradientUnits="userSpaceOnUse" x1="391.5225" y1="86.4824" x2="391.5225" y2="8.5391">
		<stop  offset="0" style="stop-color:#BA7D0A"/>
		<stop  offset="1" style="stop-color:#F2D78A"/>
	</linearGradient>
	<path style="fill:url(#SVGID_00000103255081502236443940000008398271700724591518_);" d="M413.47,69.95v13.68
		c-4.31,1.9-9.41,2.85-15.33,2.85c-5.62,0-10.16-1.79-13.63-5.36c-3.47-3.58-5.2-8.25-5.2-14.01V39.85h-9.74v-13.9h9.74l12.59-17.41
		h4.38v17.41h16.31v13.9h-16.31V63.6c0,2.48,0.67,4.49,2.03,6.02c1.35,1.53,3.12,2.3,5.31,2.3
		C407.05,71.92,410.33,71.27,413.47,69.95z"/>
	
		<linearGradient id="SVGID_00000034778973228209054680000000694035481343696283_" gradientUnits="userSpaceOnUse" x1="447.1348" y1="86.4824" x2="447.1348" y2="24.8496">
		<stop  offset="0" style="stop-color:#BA7D0A"/>
		<stop  offset="1" style="stop-color:#F2D78A"/>
	</linearGradient>
	<path style="fill:url(#SVGID_00000034778973228209054680000000694035481343696283_);" d="M452.33,39.41
		c-4.53,0-8.17,1.5-10.95,4.49c-2.77,2.99-4.16,6.93-4.16,11.82c0,4.82,1.39,8.72,4.16,11.71c2.77,2.99,6.42,4.49,10.95,4.49
		c5.47,0,9.67-1.68,12.59-5.04l9.63,11.28c-2.77,2.78-6.11,4.86-10.02,6.24c-3.91,1.39-8.19,2.08-12.86,2.08
		c-6.35,0-11.93-1.28-16.75-3.83c-4.82-2.55-8.56-6.17-11.22-10.84c-2.67-4.67-4-10.07-4-16.2c0-6.06,1.35-11.42,4.05-16.09
		c2.7-4.67,6.48-8.28,11.33-10.84c4.85-2.55,10.49-3.83,16.91-3.83c3.79,0,7.46,0.6,11,1.81c3.54,1.2,6.73,2.94,9.58,5.2l-9.52,11.5
		C460.22,40.72,456.64,39.41,452.33,39.41z"/>
	
		<linearGradient id="SVGID_00000026873900177539343520000006298189148397867397_" gradientUnits="userSpaceOnUse" x1="512.7061" y1="85.3877" x2="512.7061" y2="0">
		<stop  offset="0" style="stop-color:#BA7D0A"/>
		<stop  offset="1" style="stop-color:#F2D78A"/>
	</linearGradient>
	<path style="fill:url(#SVGID_00000026873900177539343520000006298189148397867397_);" d="M530.88,27.75
		c3.54,1.93,6.29,4.67,8.27,8.21c1.97,3.54,2.96,7.61,2.96,12.21v37.22h-16.97v-34.7c0-3.36-1.13-6.08-3.39-8.16
		c-2.26-2.08-5.25-3.12-8.98-3.12c-3.8,0-6.83,1.02-9.09,3.06c-2.26,2.04-3.39,4.78-3.39,8.21v34.7h-16.97V0h16.97v33.28
		c2.04-2.7,4.65-4.78,7.83-6.24c3.17-1.46,6.69-2.19,10.56-2.19C523.27,24.85,527.34,25.82,530.88,27.75z"/>
	<g>
		<g>
			
				<linearGradient id="SVGID_00000054259258546145823520000007494112389291631526_" gradientUnits="userSpaceOnUse" x1="122.2521" y1="66.2265" x2="122.2521" y2="38.136">
				<stop  offset="0" style="stop-color:#BA7D0A"/>
				<stop  offset="1" style="stop-color:#F2D78A"/>
			</linearGradient>
			<path style="fill:url(#SVGID_00000054259258546145823520000007494112389291631526_);" d="M124.86,52.18
				c0,3.77,0.01,7.54-0.01,11.32c-0.01,2.1-2.09,3.38-3.86,2.39c-0.99-0.56-1.36-1.47-1.35-2.57c0.01-5.7,0-11.41,0-17.11
				c0-1.8-0.01-3.59,0.01-5.39c0.02-1.35,0.89-2.42,2.12-2.64c1.24-0.22,2.48,0.45,2.89,1.63c0.14,0.4,0.19,0.84,0.19,1.27
				C124.87,44.77,124.86,48.48,124.86,52.18z"/>
			
				<linearGradient id="SVGID_00000098910719260114720360000008336162807981095858_" gradientUnits="userSpaceOnUse" x1="110.6521" y1="66.2026" x2="110.6521" y2="38.1307">
				<stop  offset="0" style="stop-color:#BA7D0A"/>
				<stop  offset="1" style="stop-color:#F2D78A"/>
			</linearGradient>
			<path style="fill:url(#SVGID_00000098910719260114720360000008336162807981095858_);" d="M108.04,52.14c0-3.75-0.01-7.5,0-11.25
				c0.01-2.08,1.98-3.37,3.78-2.47c1.02,0.51,1.44,1.41,1.44,2.51c0.01,1.7,0,3.41,0,5.11c0,5.77,0,11.54,0,17.31
				c0,1.65-1.02,2.8-2.49,2.84c-1.57,0.05-2.72-1.09-2.72-2.74C108.03,59.68,108.04,55.91,108.04,52.14z"/>
		</g>
		<g>
			
				<linearGradient id="SVGID_00000061431767957142395510000002917599947001680312_" gradientUnits="userSpaceOnUse" x1="116.4517" y1="85.3877" x2="116.4517" y2="18.9697">
				<stop  offset="0" style="stop-color:#BA7D0A"/>
				<stop  offset="1" style="stop-color:#F2D78A"/>
			</linearGradient>
			<path style="fill:url(#SVGID_00000061431767957142395510000002917599947001680312_);" d="M116.45,85.39
				c-18.31,0-33.21-14.9-33.21-33.21s14.9-33.21,33.21-33.21s33.21,14.9,33.21,33.21S134.76,85.39,116.45,85.39z M116.45,32.03
				c-11.11,0-20.15,9.04-20.15,20.15s9.04,20.15,20.15,20.15s20.15-9.04,20.15-20.15S127.56,32.03,116.45,32.03z"/>
		</g>
	</g>
</g>
</svg>
